<svg xmlns="http://www.w3.org/2000/svg" xmlns:xlink="http://www.w3.org/1999/xlink" viewBox="0 0 396.638 153.166"><defs><filter id="g" width="1.029" height="1.124" x="-.014" y="-.062" color-interpolation-filters="sRGB"><feFlood flood-color="#000" result="flood"/><feComposite in="flood" in2="SourceGraphic" operator="out" result="composite1"/><feGaussianBlur in="composite1" result="blur" stdDeviation="4"/><feOffset result="offset"/><feComposite in="offset" in2="SourceGraphic" operator="atop" result="composite2"/></filter><filter id="f" width="1.131" height="1.536" x="-.066" y="-.257" color-interpolation-filters="sRGB"><feFlood flood-color="#000" result="flood"/><feComposite in="flood" in2="SourceGraphic" operator="in" result="composite1"/><feGaussianBlur in="composite1" result="blur" stdDeviation="5"/><feOffset dy="1" result="offset"/><feComposite in="SourceGraphic" in2="offset" result="composite2"/></filter><filter id="d" width="1.064" height="1.286" x="-.032" y="-.137" color-interpolation-filters="sRGB"><feFlood flood-color="#000" result="flood"/><feComposite in="flood" in2="SourceGraphic" operator="in" result="composite1"/><feGaussianBlur in="composite1" result="blur" stdDeviation="5"/><feOffset dy="1" result="offset"/><feComposite in="SourceGraphic" in2="offset" result="composite2"/></filter><filter id="b" width="1.037" height="1.749" x="-.019" y="-.36" color-interpolation-filters="sRGB"><feFlood flood-color="#000" result="flood"/><feComposite in="flood" in2="SourceGraphic" operator="in" result="composite1"/><feGaussianBlur in="composite1" result="blur" stdDeviation="5"/><feOffset dy="1" result="offset"/><feComposite in="SourceGraphic" in2="offset" result="composite2"/></filter><linearGradient id="a"><stop offset="0" stop-color="#b7b7a4"/><stop offset="1" stop-color="#404039"/></linearGradient><linearGradient xlink:href="#a" id="e" x1="492.76" x2="492.76" y1="-359.51" y2="-312.81" gradientUnits="userSpaceOnUse"/><linearGradient xlink:href="#a" id="c" x1="327.93" x2="327.93" y1="-104.95" y2="-17.462" gradientTransform="translate(-869.71 -277.88) scale(1.0013)" gradientUnits="userSpaceOnUse"/></defs><path fill="#a7a798" d="M520.75-452.83v-33.366h22.244l16.683 16.683 16.683-16.683h22.244v33.366h-20.391v-5.561l-5.561 5.561H546.7l-5.561-5.561v5.561zm-27.19-7.415v-20.39h-9.268v20.39zm-29.659 7.415v-25.952l7.415-7.415h44.488v25.952l-7.415 7.415zm-27.19-18.537v-9.268h-9.268v9.268zm-29.659 18.537v-33.366h51.903v20.391h-9.268l9.268 9.268v3.708h-20.391l-11.122-11.122v11.122zm-56.849 0v-33.366h51.903v5.561h-31.513v7.415h14.829v5.56h-14.829v14.83zm-110.94 0v-33.366h51.903v5.561h-31.513v7.415h14.83v5.56h-14.83v7.416h31.513v7.414zm-27.19-18.537v-9.268h-9.268v9.268zm-29.659 18.537v-33.366h51.903v20.391h-31.513v12.976zm-27.19-14.829v-12.976h-9.268v12.976zm-29.659 14.829v-25.952l7.415-7.415h44.488v33.366h-22.244v-3.707h-9.269v3.707zm-56.849 0v-33.366h51.903v5.561H89.106v20.391h31.513v7.415zm-56.849 0v-7.415h29.659v-5.56H11.867v-12.977l7.415-7.414H63.77v5.56H32.257v7.415H63.77v12.976l-7.415 7.415zm-56.849 0v-33.366H6.921v5.561h-31.513v7.415h14.829v5.56h-14.829v7.416H6.921v7.414z" filter="url(#b)" transform="translate(41.03 283.09) scale(.56822)"/><path fill="url(#c)" d="M-400.3-382.93h21.163v26.218l6.183 18.54 6.13-18.54-.014-26.217h21.327c.199 0 .346.147.346.303-.033 30.106-5.087 58.384-12.81 87.21h-30.085c-9.953-28.803-12.786-57.525-12.816-87.04 0-.234.249-.473.576-.473zm-29.951 70.513v-53.48h-10.476v53.48zm-26.377 17.001-8.417-23.274v-40.192l10.24-24.047h48.423v63.955l-10.338 23.558zm-71.351 0v-87.513h22.692c.67 0 1.307.691 1.307 1.362v13.709l8.192-15.07h24.673l-13.35 29.43 13.42 58.083h-19.933l-14.836-44.587v44.587zm-29.475-47.788v-22.96h-11.168v22.96zm-35.391 47.788v-86.12c0-.732.854-1.393 1.608-1.393h57.055v53.12c0 1.71-1.561 3.198-3.823 3.198h-5.918l9.741 31.195h-26.276l-7.97-29.17v29.17zm-29.1-38.895v-34.033h-10.476v34.033zm-33.522 38.895v-64.053l10.255-22.63c.321-.58.87-.83 1.365-.83h46.071c.509 0 .972.338.972.866v86.646h-25.142v-9.723h-10.476v9.723zm-45.574 0v-70.921h-14.624c-1.612 0-2.138-.47-2.138-1.972v-13.13c-.017-.774.633-1.49 1.462-1.49h55.951c.579 0 1.25.483 1.25 1.172v14.485c0 .51-.5.935-.98.935h-17.876v70.92z" filter="url(#d)" transform="translate(729.8 412.24)"/><path fill="url(#e)" d="M416.84-359.5c-6.996 0-12.717 5.718-12.717 12.715v21.258c0 6.996 5.721 12.715 12.717 12.715h157.27c6.996 0 12.715-5.72 12.715-12.715v-21.258c0-6.996-5.72-12.715-12.715-12.715z" filter="url(#f)" transform="translate(-297.2 452.984)"/><path fill="#1a1a1a" d="M1829.9 538.95c-20.736 0-37.43 16.695-37.43 37.432v80.338c0 20.736 16.693 37.43 37.43 37.43h594.42c20.736 0 37.43-16.693 37.43-37.43v-80.338c0-20.736-16.693-37.432-37.43-37.432zm18.133 35.916h16.908v19.725h19.725v15.852h-19.725v19.609h-16.908v-19.609h-19.726v-15.852h19.726zm87.586 0h33.934l15.029 15.029v15.5h-18.201v-8.807l-4.695-4.697h-18.201l-4.696 4.697v39.922l4.696 4.698h19.022l11.273-11.271 12.445 12.445-15.852 15.852h-34.754l-15.031-15.03v-53.308zm58.824 0h18.201v32.643h27.592v-32.643h18.201v83.367h-18.201v-33.699h-27.592v33.699h-18.201zm97.928 0h19.022l26.889 79.961-17.144 5.754-6.34-18.668h-26.418l-5.754 18.668-17.142-5.754zm52.955 0h16.32l27.357 43.797 3.053 7.75h.47l-1.29-7.867v-43.68h18.198v83.367h-16.32l-27.359-43.797-3.052-7.75h-.469l1.291 7.867v43.68h-18.199zm92.055 0h33.934l15.029 15.029v15.5h-18.199v-8.807l-4.697-4.697h-18.2l-4.697 4.697v39.922l4.698 4.698h18.199c1.644-1.644 3.053-2.936 4.697-4.698V627h-17.965v-14.677h36.164v30.998l-14.912 14.912h-34.051l-15.029-15.03v-53.308zm61.879 0h57.887v17.025h-39.688v14.326h34.756v17.025h-34.756v17.965h39.688v17.025h-57.887zm79.373 0h30.881l16.908 5.754-5.518 16.32-14.795-5.049h-20.195l-3.992 3.992v2.936l1.526 3.17 37.457 16.205 4.931 9.275v15.852l-14.912 14.912h-30.998l-16.908-5.754 5.518-16.32 14.795 5.049h20.312l3.992-3.992v-2.936l-1.525-3.17-37.457-16.205-4.932-9.275v-15.852zm-276.99 23.014-1.527 8.69-6.575 19.491h16.674l-6.576-19.492-1.527-8.689zm-272.17 44.5h54.012v15.852h-54.012z" filter="url(#g)" transform="translate(-364.5 -46.3) scale(.26458)"/></svg>